<svg width="90" height="85" viewBox="0 0 90 85" fill="none" xmlns="http://www.w3.org/2000/svg">
<path d="M67.4148 84.3696H22.2058C9.94787 84.3568 0.0148565 75.0469 0.0010549 63.5598V63.5585C0.000351633 63.4983 0 63.4272 0 63.3561C0 58.0967 2.10865 53.2988 5.57672 49.6647L5.55826 49.6845L36.0563 18.0065H53.9278L84.4419 49.6995C87.8914 53.3138 90 58.1117 90 63.3712C90 63.4424 89.9996 63.5135 89.9989 63.5844V63.5737V63.6825C89.7336 69.4061 87.1278 74.5151 83.0625 78.2269L83.0574 78.2315C79.0559 81.9968 73.53 84.337 67.421 84.3697H67.4142L67.4148 84.3696ZM10.0393 53.4341C7.53329 56.0434 6.00044 59.5143 6.00044 63.3209C6.00044 63.4044 6.00114 63.4877 6.00264 63.5709V63.5584C6.01389 71.9414 13.2616 78.7342 22.2047 78.7449H67.4149C76.3497 78.4765 83.5428 71.8456 84.0163 63.5424L84.0181 63.502C84.019 63.4472 84.0194 63.3822 84.0194 63.3172C84.0194 59.512 82.4869 56.0423 79.9688 53.4207L79.9815 53.4341L51.2757 23.6235H38.7412L10.0393 53.4341ZM25.7465 0H63.474L61.1577 10.8481C60.3568 14.5654 58.24 17.7285 55.2915 19.9671L55.2603 19.99C52.3886 22.2255 48.6729 23.5925 44.6173 23.6235H44.6103L44.564 23.6237C36.406 23.6237 29.6058 18.1747 28.0803 10.9482L28.0628 10.8482L25.7465 0ZM56.1524 5.62467H33.068L33.9561 9.79437C34.9516 14.5003 39.321 17.999 44.5623 17.999H44.6129H44.6103C49.832 17.9178 54.1685 14.463 55.2509 9.86333L55.2645 9.79445V9.76067L56.1524 5.62467ZM54.8725 20.8337L52.1879 15.8015L72.7559 6.16458L75.4405 11.193L54.8725 20.8337ZM78.0171 23.6235H49.2112V17.9988H78.017L78.0171 23.6235ZM46.6106 66.3708H34.0081V60.7461H46.6106C46.6539 60.7486 46.7045 60.7502 46.7554 60.7502C47.4348 60.7502 48.0498 60.4921 48.4951 60.0749C48.9401 59.6576 49.2154 59.0813 49.2154 58.4444C49.2154 58.3968 49.2138 58.3493 49.2108 58.3023L49.2112 58.3087C49.2138 58.2682 49.2156 58.2207 49.2156 58.173C49.2156 57.5363 48.9402 56.9599 48.4951 56.5425C48.0498 56.1254 47.4349 55.8673 46.7554 55.8673C46.7046 55.8673 46.6539 55.8687 46.6038 55.8715L46.6105 55.8712H42.6098C42.5826 55.8715 42.5505 55.8717 42.5184 55.8717C40.1682 55.8717 38.0405 54.9787 36.5005 53.5351C34.9601 52.0918 34.0074 50.0977 34.0074 47.8949C34.0074 47.8648 34.0076 47.8348 34.008 47.8047V47.8093C34.0076 47.7838 34.0075 47.7537 34.0075 47.7236C34.0075 45.5209 34.9604 43.5267 36.5005 42.0833C38.0405 40.6396 40.1681 39.7466 42.5184 39.7466C42.5506 39.7466 42.5826 39.7469 42.6147 39.7472H55.2123V45.3719H42.6098C42.5666 45.3694 42.5159 45.3678 42.465 45.3678C41.7857 45.3678 41.1707 45.6259 40.7253 46.0431C40.2803 46.4604 40.005 47.0367 40.005 47.6736C40.005 47.7212 40.0066 47.7687 40.0096 47.8157L40.0092 47.8093C40.0066 47.8498 40.0048 47.8973 40.0048 47.945C40.0048 48.5817 40.2803 49.1581 40.7253 49.5755C41.1706 49.9926 41.7855 50.2507 42.465 50.2507C42.5158 50.2507 42.5665 50.2493 42.6167 50.2465L42.6098 50.2468H46.6105C46.6378 50.2465 46.6699 50.2463 46.7019 50.2463C49.0522 50.2463 51.1798 51.1393 52.7199 52.5829C54.2602 54.0262 55.213 56.0203 55.213 58.2231C55.213 58.2533 55.2127 58.2832 55.2123 58.3133V58.3087C55.2127 58.3342 55.2129 58.3643 55.2129 58.3944C55.2129 60.5971 54.2602 62.5913 52.72 64.0347C51.18 65.4784 49.0524 66.3714 46.7021 66.3714C46.6699 66.3714 46.638 66.3711 46.6059 66.3708H46.6109H46.6106ZM47.6108 44.9971H41.6096V35.6227H47.6108V44.9971ZM47.6108 70.1205H41.6096V60.7462H47.6108V70.1205Z" fill="#FFD200"/>
</svg>
