<svg width="106" height="85" viewBox="0 0 106 85" fill="none" xmlns="http://www.w3.org/2000/svg">
<path d="M105.79 55.8522H89.6651V51.9629H100.991V3.88941H5.00957V51.9629H71.3327V55.8523H0.210449V0H105.79V55.8522ZM39.2747 41.0337V37.1443H55.3035C57.7723 37.118 59.7616 35.4921 59.7667 33.4886V33.4882C59.764 31.4914 57.7675 29.8732 55.3039 29.8711H50.5044C45.3891 29.8711 41.2423 26.5103 41.2423 22.3645C41.2423 18.2187 45.3893 14.8579 50.5046 14.8579H66.5335V18.7473H50.5046C48.0397 18.7473 46.0415 20.3668 46.0415 22.3645C46.0415 24.3623 48.0398 25.9817 50.5046 25.9817H55.3036C60.4323 25.9817 64.5898 29.3512 64.5898 33.5077C64.5898 37.6643 60.4323 41.0338 55.3036 41.0338L39.2747 41.0337ZM55.3998 16.8025H50.6007V9.37365H55.3997L55.3998 16.8025ZM55.3998 46.4789H50.6007V39.0888H55.3997L55.3998 46.4789ZM82.1977 85L78.8048 82.2502C84.0313 78.0361 87.2658 72.2029 87.2658 65.7574C87.2658 65.7347 87.2657 65.712 87.2655 65.6893V65.6928V50.135C87.2451 47.1188 84.2233 44.68 80.4988 44.68C76.7615 44.68 73.7321 47.1354 73.7321 50.1641V50.1949V50.1932V62.5306L71.4478 63.4563C67.3359 65.1414 64.5658 68.5392 64.5658 72.4613V72.5012V72.4992H59.767C59.7668 72.4861 59.7668 72.4706 59.7668 72.455C59.7668 67.1408 63.4401 62.5218 68.8413 60.175L68.9331 60.1384V50.2125L68.9329 50.1638C68.9329 44.987 74.111 40.7902 80.4987 40.7902C86.8652 40.7902 92.0303 44.9593 92.0645 50.1127V65.6926C92.0647 65.7148 92.0647 65.7412 92.0647 65.7676C92.0647 73.2838 88.2925 80.086 82.1991 84.9987L82.1977 84.9998V85ZM42.1351 84.8794C36.0401 79.966 32.2681 73.1643 32.2681 65.6487V65.572V65.5759V53.9076H37.0672V65.6383C37.0672 72.0833 40.3017 77.916 45.5268 82.1284L45.528 82.1294L42.1351 84.8794Z" fill="white"/>
</svg>
